# xmcd
#
# Track frame offsets:
#	150
#	14449
#	25909
#	64181
#	74657
#	95405
#	122991
#	133367
#	154022
#	170167
#	190858
#	209549
#	224436
#	246529
#
# Disc length: 3507 seconds
#
# Revision: 3
# Processed by: cddbd v1.5.2PL0 Copyright (c) Steve Scherf et al.
# Submitted via: EasyCDDAExtractor 2010.6.0.0
#
DISCID=e30db10e
DTITLE=Various Artist - Emozioni In Musica-53-Avventure D'autore
DYEAR=1999
DGENRE=italiani
TTITLE0=Lucio Battisti - Un'avventura
TTITLE1=Giorgio Gaber - Snoopy Contro Il Barone Rosso
TTITLE2=Roberto Vecchioni - L'Ultimo Spettacolo
TTITLE3=Ivano Fossati - Canto Nuovo
TTITLE4=Lucio Dalla - Il Coyote
TTITLE5=Vasco Rossi - Siamo Solo Noi
TTITLE6=Herbert Pagani - Sai Che Basta L'amore
TTITLE7=Roberto Vecchioni - A.R.
TTITLE8=Sergio Endrigo - Canzone Per Te
TTITLE9=Ron - Mi Hai Preso Il Cuore
TTITLE10=Giorgio Gaber - E Allora Dai
TTITLE11=Luigi Tenco - Quando
TTITLE12=Ivan Graziani - Noi Non Moriremo Mai
TTITLE13=Roberto Vecchioni - Samarcanda
EXTD=Emozioni in musica YEAR: 1999
EXTT0=
EXTT1=
EXTT2=
EXTT3=
EXTT4=
EXTT5=
EXTT6=
EXTT7=
EXTT8=
EXTT9=
EXTT10=
EXTT11=
EXTT12=
EXTT13=
PLAYORDER=
